<mxfile host="app.diagrams.net" agent="Mozilla/5.0 (Macintosh; Intel Mac OS X 10_15_7) AppleWebKit/537.36 (KHTML, like Gecko) Chrome/137.0.0.0 Safari/537.36" version="28.2.5">
  <diagram name="第 1 页" id="tQVFFfUuTfknBGljxKSW">
    <mxGraphModel dx="4263" dy="3275" grid="1" gridSize="10" guides="1" tooltips="1" connect="1" arrows="1" fold="1" page="1" pageScale="1" pageWidth="827" pageHeight="1169" math="1" shadow="0">
      <root>
        <mxCell id="0" />
        <mxCell id="1" parent="0" />
        <mxCell id="UMfH54SIPUYyljazPVqs-2" value="" style="rounded=1;whiteSpace=wrap;html=1;strokeWidth=3;fillColor=#f5f5f5;fontColor=#333333;strokeColor=#666666;container=0;fontSize=150;" parent="1" vertex="1">
          <mxGeometry x="900" y="70" width="3130" height="1800" as="geometry" />
        </mxCell>
        <mxCell id="UMfH54SIPUYyljazPVqs-3" value="" style="rounded=1;whiteSpace=wrap;html=1;fillColor=#dae8fc;strokeColor=#6c8ebf;container=0;fontSize=150;" parent="1" vertex="1">
          <mxGeometry x="1282" y="150" width="2270" height="1450" as="geometry" />
        </mxCell>
        <mxCell id="UMfH54SIPUYyljazPVqs-4" style="edgeStyle=orthogonalEdgeStyle;rounded=0;orthogonalLoop=1;jettySize=auto;html=1;exitX=0.5;exitY=0;exitDx=0;exitDy=0;entryX=0;entryY=0.5;entryDx=0;entryDy=0;strokeWidth=10;fontSize=150;" parent="1" source="UMfH54SIPUYyljazPVqs-5" target="UMfH54SIPUYyljazPVqs-25" edge="1">
          <mxGeometry relative="1" as="geometry" />
        </mxCell>
        <mxCell id="UMfH54SIPUYyljazPVqs-5" value="&lt;span style=&quot;text-align: left; background-color: rgb(255, 255, 255);&quot;&gt;$$V_n$$&lt;/span&gt;" style="text;html=1;align=center;verticalAlign=middle;whiteSpace=wrap;rounded=0;fontFamily=Times New Roman;fontSize=150;container=0;" parent="1" vertex="1">
          <mxGeometry x="2202" y="1000" width="200" height="180" as="geometry" />
        </mxCell>
        <mxCell id="UMfH54SIPUYyljazPVqs-6" style="edgeStyle=orthogonalEdgeStyle;rounded=0;orthogonalLoop=1;jettySize=auto;html=1;exitX=0.5;exitY=0;exitDx=0;exitDy=0;entryX=1;entryY=0.5;entryDx=0;entryDy=0;strokeWidth=10;fontSize=150;" parent="1" source="UMfH54SIPUYyljazPVqs-7" target="UMfH54SIPUYyljazPVqs-25" edge="1">
          <mxGeometry relative="1" as="geometry" />
        </mxCell>
        <mxCell id="UMfH54SIPUYyljazPVqs-7" value="&lt;span style=&quot;text-align: left; background-color: rgb(255, 255, 255);&quot;&gt;$$K_n$$&lt;/span&gt;" style="text;html=1;align=center;verticalAlign=middle;whiteSpace=wrap;rounded=0;fontFamily=Times New Roman;fontSize=150;container=0;" parent="1" vertex="1">
          <mxGeometry x="2779" y="1000" width="200" height="180" as="geometry" />
        </mxCell>
        <mxCell id="UMfH54SIPUYyljazPVqs-8" style="edgeStyle=orthogonalEdgeStyle;rounded=0;orthogonalLoop=1;jettySize=auto;html=1;exitX=0.5;exitY=0;exitDx=0;exitDy=0;strokeWidth=10;fontSize=150;" parent="1" source="UMfH54SIPUYyljazPVqs-9" target="UMfH54SIPUYyljazPVqs-28" edge="1">
          <mxGeometry relative="1" as="geometry" />
        </mxCell>
        <mxCell id="UMfH54SIPUYyljazPVqs-9" value="&lt;span style=&quot;text-align: left; background-color: rgb(255, 255, 255);&quot;&gt;$$Q_n$$&lt;/span&gt;" style="text;html=1;align=center;verticalAlign=middle;whiteSpace=wrap;rounded=0;fontFamily=Times New Roman;fontSize=150;container=0;" parent="1" vertex="1">
          <mxGeometry x="3287" y="1000" width="200" height="180" as="geometry" />
        </mxCell>
        <mxCell id="UMfH54SIPUYyljazPVqs-10" style="edgeStyle=orthogonalEdgeStyle;rounded=0;orthogonalLoop=1;jettySize=auto;html=1;exitX=0.5;exitY=0;exitDx=0;exitDy=0;strokeWidth=10;fontSize=150;" parent="1" source="UMfH54SIPUYyljazPVqs-14" target="UMfH54SIPUYyljazPVqs-7" edge="1">
          <mxGeometry relative="1" as="geometry" />
        </mxCell>
        <mxCell id="UMfH54SIPUYyljazPVqs-11" style="edgeStyle=orthogonalEdgeStyle;rounded=0;orthogonalLoop=1;jettySize=auto;html=1;exitX=0.5;exitY=0;exitDx=0;exitDy=0;entryX=0.5;entryY=1;entryDx=0;entryDy=0;strokeWidth=10;fontSize=150;" parent="1" source="UMfH54SIPUYyljazPVqs-14" target="UMfH54SIPUYyljazPVqs-5" edge="1">
          <mxGeometry relative="1" as="geometry">
            <Array as="points">
              <mxPoint x="2920" y="1420" />
              <mxPoint x="2288" y="1420" />
            </Array>
          </mxGeometry>
        </mxCell>
        <mxCell id="UMfH54SIPUYyljazPVqs-12" style="edgeStyle=orthogonalEdgeStyle;rounded=0;orthogonalLoop=1;jettySize=auto;html=1;exitX=0.5;exitY=0;exitDx=0;exitDy=0;entryX=0.5;entryY=1;entryDx=0;entryDy=0;strokeWidth=10;fontSize=150;" parent="1" source="UMfH54SIPUYyljazPVqs-14" target="UMfH54SIPUYyljazPVqs-9" edge="1">
          <mxGeometry relative="1" as="geometry">
            <Array as="points">
              <mxPoint x="2879" y="1420" />
              <mxPoint x="3387" y="1420" />
            </Array>
          </mxGeometry>
        </mxCell>
        <mxCell id="UMfH54SIPUYyljazPVqs-13" style="edgeStyle=orthogonalEdgeStyle;rounded=0;orthogonalLoop=1;jettySize=auto;html=1;exitX=0;exitY=0.5;exitDx=0;exitDy=0;entryX=0.5;entryY=1;entryDx=0;entryDy=0;strokeWidth=10;fontSize=150;" parent="1" source="UMfH54SIPUYyljazPVqs-14" edge="1">
          <mxGeometry relative="1" as="geometry">
            <mxPoint x="1765" y="1420" as="targetPoint" />
          </mxGeometry>
        </mxCell>
        <mxCell id="UMfH54SIPUYyljazPVqs-14" value="&lt;span style=&quot;text-align: left; background-color: rgb(255, 255, 255);&quot;&gt;$$X_n$$&lt;/span&gt;" style="text;html=1;align=center;verticalAlign=middle;whiteSpace=wrap;rounded=0;fontFamily=Times New Roman;fontSize=150;container=0;" parent="1" vertex="1">
          <mxGeometry x="2779" y="1650" width="200" height="180" as="geometry" />
        </mxCell>
        <mxCell id="UMfH54SIPUYyljazPVqs-15" style="edgeStyle=orthogonalEdgeStyle;rounded=0;orthogonalLoop=1;jettySize=auto;html=1;exitX=1;exitY=0.5;exitDx=0;exitDy=0;strokeWidth=10;fontSize=150;" parent="1" source="UMfH54SIPUYyljazPVqs-16" target="UMfH54SIPUYyljazPVqs-19" edge="1">
          <mxGeometry relative="1" as="geometry" />
        </mxCell>
        <mxCell id="UMfH54SIPUYyljazPVqs-16" value="&lt;b style=&quot;text-align: start; text-wrap-mode: nowrap;&quot;&gt;&lt;font&gt;$$\oplus$$&lt;/font&gt;&lt;/b&gt;" style="text;html=1;align=center;verticalAlign=middle;whiteSpace=wrap;rounded=0;fontFamily=Times New Roman;fontSize=150;container=0;" parent="1" vertex="1">
          <mxGeometry x="2497" y="140" width="200" height="200" as="geometry" />
        </mxCell>
        <mxCell id="UMfH54SIPUYyljazPVqs-17" style="edgeStyle=orthogonalEdgeStyle;rounded=0;orthogonalLoop=1;jettySize=auto;html=1;exitX=1;exitY=0.5;exitDx=0;exitDy=0;strokeWidth=10;fontSize=150;" parent="1" source="UMfH54SIPUYyljazPVqs-18" target="UMfH54SIPUYyljazPVqs-23" edge="1">
          <mxGeometry relative="1" as="geometry" />
        </mxCell>
        <mxCell id="UMfH54SIPUYyljazPVqs-18" value="&lt;span style=&quot;text-align: left; background-color: rgb(255, 255, 255);&quot;&gt;$$S_{n-1}$$&lt;/span&gt;" style="text;html=1;align=center;verticalAlign=middle;whiteSpace=wrap;rounded=0;fontFamily=Times New Roman;fontSize=150;container=0;" parent="1" vertex="1">
          <mxGeometry x="1008" y="150" width="200" height="180" as="geometry" />
        </mxCell>
        <mxCell id="UMfH54SIPUYyljazPVqs-19" value="&lt;span style=&quot;text-align: left; background-color: rgb(255, 255, 255);&quot;&gt;$$S_{n}$$&lt;/span&gt;" style="text;html=1;align=center;verticalAlign=middle;whiteSpace=wrap;rounded=0;fontFamily=Times New Roman;fontSize=150;container=0;" parent="1" vertex="1">
          <mxGeometry x="3788" y="150" width="200" height="180" as="geometry" />
        </mxCell>
        <mxCell id="UMfH54SIPUYyljazPVqs-20" value="&lt;span style=&quot;text-align: left; background-color: rgb(255, 255, 255);&quot;&gt;$$O_{n}$$&lt;/span&gt;" style="text;html=1;align=center;verticalAlign=middle;whiteSpace=wrap;rounded=0;fontFamily=Times New Roman;fontSize=150;container=0;" parent="1" vertex="1">
          <mxGeometry x="3788" y="530" width="200" height="180" as="geometry" />
        </mxCell>
        <mxCell id="UMfH54SIPUYyljazPVqs-21" style="edgeStyle=orthogonalEdgeStyle;rounded=0;orthogonalLoop=1;jettySize=auto;html=1;exitX=1;exitY=0.5;exitDx=0;exitDy=0;entryX=0;entryY=0.5;entryDx=0;entryDy=0;strokeWidth=10;fontSize=150;" parent="1" source="UMfH54SIPUYyljazPVqs-23" target="UMfH54SIPUYyljazPVqs-16" edge="1">
          <mxGeometry relative="1" as="geometry" />
        </mxCell>
        <mxCell id="UMfH54SIPUYyljazPVqs-22" style="edgeStyle=orthogonalEdgeStyle;rounded=0;orthogonalLoop=1;jettySize=auto;html=1;exitX=0.5;exitY=1;exitDx=0;exitDy=0;strokeWidth=10;startArrow=classic;startFill=1;endArrow=none;endFill=0;fontSize=150;" parent="1" source="UMfH54SIPUYyljazPVqs-23" edge="1">
          <mxGeometry relative="1" as="geometry">
            <mxPoint x="1788" y="676.0000000000009" as="targetPoint" />
          </mxGeometry>
        </mxCell>
        <mxCell id="UMfH54SIPUYyljazPVqs-23" value="&lt;b style=&quot;text-align: start; text-wrap-mode: nowrap;&quot;&gt;&lt;font&gt;$$\mathbb{\odot}$$&lt;/font&gt;&lt;/b&gt;" style="text;html=1;align=center;verticalAlign=middle;whiteSpace=wrap;rounded=0;fontFamily=Times New Roman;fontSize=150;container=0;" parent="1" vertex="1">
          <mxGeometry x="1688" y="140" width="200" height="200" as="geometry" />
        </mxCell>
        <mxCell id="UMfH54SIPUYyljazPVqs-24" style="edgeStyle=orthogonalEdgeStyle;rounded=0;orthogonalLoop=1;jettySize=auto;html=1;strokeWidth=10;fontSize=150;" parent="1" source="UMfH54SIPUYyljazPVqs-25" target="UMfH54SIPUYyljazPVqs-16" edge="1">
          <mxGeometry relative="1" as="geometry" />
        </mxCell>
        <mxCell id="UMfH54SIPUYyljazPVqs-25" value="&lt;b style=&quot;text-align: start; text-wrap-mode: nowrap;&quot;&gt;&lt;font&gt;$$\otimes$$&lt;/font&gt;&lt;/b&gt;" style="text;html=1;align=center;verticalAlign=middle;whiteSpace=wrap;rounded=0;fontFamily=Times New Roman;fontSize=150;container=0;" parent="1" vertex="1">
          <mxGeometry x="2497" y="720" width="200" height="200" as="geometry" />
        </mxCell>
        <mxCell id="UMfH54SIPUYyljazPVqs-26" style="edgeStyle=orthogonalEdgeStyle;rounded=0;orthogonalLoop=1;jettySize=auto;html=1;exitX=1;exitY=0.5;exitDx=0;exitDy=0;strokeWidth=10;fontSize=150;" parent="1" source="UMfH54SIPUYyljazPVqs-28" target="UMfH54SIPUYyljazPVqs-20" edge="1">
          <mxGeometry relative="1" as="geometry" />
        </mxCell>
        <mxCell id="UMfH54SIPUYyljazPVqs-27" style="edgeStyle=orthogonalEdgeStyle;rounded=0;orthogonalLoop=1;jettySize=auto;html=1;exitX=0.5;exitY=0;exitDx=0;exitDy=0;endArrow=none;endFill=0;startArrow=classic;startFill=1;strokeWidth=10;fontSize=150;" parent="1" source="UMfH54SIPUYyljazPVqs-28" edge="1">
          <mxGeometry relative="1" as="geometry">
            <mxPoint x="3388.333333333334" y="236" as="targetPoint" />
          </mxGeometry>
        </mxCell>
        <mxCell id="UMfH54SIPUYyljazPVqs-28" value="&lt;b style=&quot;text-align: start; text-wrap-mode: nowrap;&quot;&gt;&lt;font&gt;$$\otimes$$&lt;/font&gt;&lt;/b&gt;" style="text;html=1;align=center;verticalAlign=middle;whiteSpace=wrap;rounded=0;fontFamily=Times New Roman;fontSize=150;container=0;" parent="1" vertex="1">
          <mxGeometry x="3287" y="520" width="200" height="200" as="geometry" />
        </mxCell>
        <mxCell id="6cOXGB1qc0u8PzBB4qL0-1" value="" style="rounded=1;whiteSpace=wrap;html=1;strokeWidth=3;fillColor=#f5f5f5;fontColor=#333333;strokeColor=#666666;container=0;fontSize=150;" vertex="1" parent="1">
          <mxGeometry x="4313" y="80" width="3130" height="2130" as="geometry" />
        </mxCell>
        <mxCell id="6cOXGB1qc0u8PzBB4qL0-2" value="" style="rounded=1;whiteSpace=wrap;html=1;fillColor=#dae8fc;strokeColor=#6c8ebf;container=0;fontSize=150;" vertex="1" parent="1">
          <mxGeometry x="4695" y="160" width="2270" height="1760" as="geometry" />
        </mxCell>
        <mxCell id="6cOXGB1qc0u8PzBB4qL0-3" style="edgeStyle=orthogonalEdgeStyle;rounded=0;orthogonalLoop=1;jettySize=auto;html=1;exitX=0.5;exitY=0;exitDx=0;exitDy=0;entryX=0;entryY=0.5;entryDx=0;entryDy=0;strokeWidth=10;fontSize=150;" edge="1" parent="1" source="6cOXGB1qc0u8PzBB4qL0-4" target="6cOXGB1qc0u8PzBB4qL0-24">
          <mxGeometry relative="1" as="geometry" />
        </mxCell>
        <mxCell id="6cOXGB1qc0u8PzBB4qL0-4" value="&lt;span style=&quot;text-align: left; background-color: rgb(255, 255, 255);&quot;&gt;$$V_n$$&lt;/span&gt;" style="text;html=1;align=center;verticalAlign=middle;whiteSpace=wrap;rounded=0;fontFamily=Times New Roman;fontSize=150;container=0;" vertex="1" parent="1">
          <mxGeometry x="5615" y="1370" width="200" height="180" as="geometry" />
        </mxCell>
        <mxCell id="6cOXGB1qc0u8PzBB4qL0-5" style="edgeStyle=orthogonalEdgeStyle;rounded=0;orthogonalLoop=1;jettySize=auto;html=1;exitX=0.5;exitY=0;exitDx=0;exitDy=0;entryX=1;entryY=0.5;entryDx=0;entryDy=0;strokeWidth=10;fontSize=150;" edge="1" parent="1" source="6cOXGB1qc0u8PzBB4qL0-6" target="6cOXGB1qc0u8PzBB4qL0-24">
          <mxGeometry relative="1" as="geometry" />
        </mxCell>
        <mxCell id="6cOXGB1qc0u8PzBB4qL0-6" value="&lt;span style=&quot;text-align: left; background-color: rgb(255, 255, 255);&quot;&gt;$$K_n$$&lt;/span&gt;" style="text;html=1;align=center;verticalAlign=middle;whiteSpace=wrap;rounded=0;fontFamily=Times New Roman;fontSize=150;container=0;" vertex="1" parent="1">
          <mxGeometry x="6192" y="1370" width="200" height="180" as="geometry" />
        </mxCell>
        <mxCell id="6cOXGB1qc0u8PzBB4qL0-7" style="edgeStyle=orthogonalEdgeStyle;rounded=0;orthogonalLoop=1;jettySize=auto;html=1;exitX=0.5;exitY=0;exitDx=0;exitDy=0;strokeWidth=10;fontSize=150;" edge="1" parent="1" source="6cOXGB1qc0u8PzBB4qL0-8" target="6cOXGB1qc0u8PzBB4qL0-27">
          <mxGeometry relative="1" as="geometry" />
        </mxCell>
        <mxCell id="6cOXGB1qc0u8PzBB4qL0-8" value="&lt;span style=&quot;text-align: left; background-color: rgb(255, 255, 255);&quot;&gt;$$Q_n$$&lt;/span&gt;" style="text;html=1;align=center;verticalAlign=middle;whiteSpace=wrap;rounded=0;fontFamily=Times New Roman;fontSize=150;container=0;" vertex="1" parent="1">
          <mxGeometry x="6700" y="1370" width="200" height="180" as="geometry" />
        </mxCell>
        <mxCell id="6cOXGB1qc0u8PzBB4qL0-9" style="edgeStyle=orthogonalEdgeStyle;rounded=0;orthogonalLoop=1;jettySize=auto;html=1;exitX=0.5;exitY=0;exitDx=0;exitDy=0;strokeWidth=10;fontSize=150;" edge="1" parent="1" source="6cOXGB1qc0u8PzBB4qL0-13" target="6cOXGB1qc0u8PzBB4qL0-6">
          <mxGeometry relative="1" as="geometry" />
        </mxCell>
        <mxCell id="6cOXGB1qc0u8PzBB4qL0-10" style="edgeStyle=orthogonalEdgeStyle;rounded=0;orthogonalLoop=1;jettySize=auto;html=1;exitX=0.5;exitY=0;exitDx=0;exitDy=0;entryX=0.5;entryY=1;entryDx=0;entryDy=0;strokeWidth=10;fontSize=150;" edge="1" parent="1" source="6cOXGB1qc0u8PzBB4qL0-13" target="6cOXGB1qc0u8PzBB4qL0-4">
          <mxGeometry relative="1" as="geometry">
            <Array as="points">
              <mxPoint x="6333" y="1790" />
              <mxPoint x="5701" y="1790" />
            </Array>
          </mxGeometry>
        </mxCell>
        <mxCell id="6cOXGB1qc0u8PzBB4qL0-11" style="edgeStyle=orthogonalEdgeStyle;rounded=0;orthogonalLoop=1;jettySize=auto;html=1;exitX=0.5;exitY=0;exitDx=0;exitDy=0;entryX=0.5;entryY=1;entryDx=0;entryDy=0;strokeWidth=10;fontSize=150;" edge="1" parent="1" source="6cOXGB1qc0u8PzBB4qL0-13" target="6cOXGB1qc0u8PzBB4qL0-8">
          <mxGeometry relative="1" as="geometry">
            <Array as="points">
              <mxPoint x="6292" y="1790" />
              <mxPoint x="6800" y="1790" />
            </Array>
          </mxGeometry>
        </mxCell>
        <mxCell id="6cOXGB1qc0u8PzBB4qL0-12" style="edgeStyle=orthogonalEdgeStyle;rounded=0;orthogonalLoop=1;jettySize=auto;html=1;exitX=0;exitY=0.5;exitDx=0;exitDy=0;entryX=0.5;entryY=1;entryDx=0;entryDy=0;strokeWidth=10;fontSize=150;" edge="1" parent="1" source="6cOXGB1qc0u8PzBB4qL0-13" target="6cOXGB1qc0u8PzBB4qL0-40">
          <mxGeometry relative="1" as="geometry" />
        </mxCell>
        <mxCell id="6cOXGB1qc0u8PzBB4qL0-13" value="&lt;span style=&quot;text-align: left; background-color: rgb(255, 255, 255);&quot;&gt;$$X_n$$&lt;/span&gt;" style="text;html=1;align=center;verticalAlign=middle;whiteSpace=wrap;rounded=0;fontFamily=Times New Roman;fontSize=150;container=0;" vertex="1" parent="1">
          <mxGeometry x="6192" y="2020" width="200" height="180" as="geometry" />
        </mxCell>
        <mxCell id="6cOXGB1qc0u8PzBB4qL0-14" style="edgeStyle=orthogonalEdgeStyle;rounded=0;orthogonalLoop=1;jettySize=auto;html=1;exitX=1;exitY=0.5;exitDx=0;exitDy=0;strokeWidth=10;fontSize=150;" edge="1" parent="1" source="6cOXGB1qc0u8PzBB4qL0-15" target="6cOXGB1qc0u8PzBB4qL0-18">
          <mxGeometry relative="1" as="geometry" />
        </mxCell>
        <mxCell id="6cOXGB1qc0u8PzBB4qL0-15" value="&lt;b style=&quot;text-align: start; text-wrap-mode: nowrap;&quot;&gt;&lt;font&gt;$$\oplus$$&lt;/font&gt;&lt;/b&gt;" style="text;html=1;align=center;verticalAlign=middle;whiteSpace=wrap;rounded=0;fontFamily=Times New Roman;fontSize=150;container=0;" vertex="1" parent="1">
          <mxGeometry x="5910" y="150" width="200" height="200" as="geometry" />
        </mxCell>
        <mxCell id="6cOXGB1qc0u8PzBB4qL0-16" style="edgeStyle=orthogonalEdgeStyle;rounded=0;orthogonalLoop=1;jettySize=auto;html=1;exitX=1;exitY=0.5;exitDx=0;exitDy=0;strokeWidth=10;fontSize=150;" edge="1" parent="1" source="6cOXGB1qc0u8PzBB4qL0-17" target="6cOXGB1qc0u8PzBB4qL0-22">
          <mxGeometry relative="1" as="geometry" />
        </mxCell>
        <mxCell id="6cOXGB1qc0u8PzBB4qL0-17" value="&lt;span style=&quot;text-align: left; background-color: rgb(255, 255, 255);&quot;&gt;$$S_{n-1}$$&lt;/span&gt;" style="text;html=1;align=center;verticalAlign=middle;whiteSpace=wrap;rounded=0;fontFamily=Times New Roman;fontSize=150;container=0;" vertex="1" parent="1">
          <mxGeometry x="4421" y="160" width="200" height="180" as="geometry" />
        </mxCell>
        <mxCell id="6cOXGB1qc0u8PzBB4qL0-18" value="&lt;span style=&quot;text-align: left; background-color: rgb(255, 255, 255);&quot;&gt;$$S_{n}$$&lt;/span&gt;" style="text;html=1;align=center;verticalAlign=middle;whiteSpace=wrap;rounded=0;fontFamily=Times New Roman;fontSize=150;container=0;" vertex="1" parent="1">
          <mxGeometry x="7201" y="160" width="200" height="180" as="geometry" />
        </mxCell>
        <mxCell id="6cOXGB1qc0u8PzBB4qL0-19" value="&lt;span style=&quot;text-align: left; background-color: rgb(255, 255, 255);&quot;&gt;$$O_{n}$$&lt;/span&gt;" style="text;html=1;align=center;verticalAlign=middle;whiteSpace=wrap;rounded=0;fontFamily=Times New Roman;fontSize=150;container=0;" vertex="1" parent="1">
          <mxGeometry x="7201" y="540" width="200" height="180" as="geometry" />
        </mxCell>
        <mxCell id="6cOXGB1qc0u8PzBB4qL0-20" style="edgeStyle=orthogonalEdgeStyle;rounded=0;orthogonalLoop=1;jettySize=auto;html=1;exitX=1;exitY=0.5;exitDx=0;exitDy=0;entryX=0;entryY=0.5;entryDx=0;entryDy=0;strokeWidth=10;fontSize=150;" edge="1" parent="1" source="6cOXGB1qc0u8PzBB4qL0-22" target="6cOXGB1qc0u8PzBB4qL0-15">
          <mxGeometry relative="1" as="geometry" />
        </mxCell>
        <mxCell id="6cOXGB1qc0u8PzBB4qL0-21" style="edgeStyle=orthogonalEdgeStyle;rounded=0;orthogonalLoop=1;jettySize=auto;html=1;exitX=0.5;exitY=1;exitDx=0;exitDy=0;strokeWidth=10;startArrow=classic;startFill=1;endArrow=none;endFill=0;fontSize=150;" edge="1" parent="1" source="6cOXGB1qc0u8PzBB4qL0-22">
          <mxGeometry relative="1" as="geometry">
            <mxPoint x="5201" y="686.0000000000009" as="targetPoint" />
          </mxGeometry>
        </mxCell>
        <mxCell id="6cOXGB1qc0u8PzBB4qL0-22" value="&lt;b style=&quot;text-align: start; text-wrap-mode: nowrap;&quot;&gt;&lt;font&gt;$$\mathbb{\odot}$$&lt;/font&gt;&lt;/b&gt;" style="text;html=1;align=center;verticalAlign=middle;whiteSpace=wrap;rounded=0;fontFamily=Times New Roman;fontSize=150;container=0;" vertex="1" parent="1">
          <mxGeometry x="5101" y="150" width="200" height="200" as="geometry" />
        </mxCell>
        <mxCell id="6cOXGB1qc0u8PzBB4qL0-23" style="edgeStyle=orthogonalEdgeStyle;rounded=0;orthogonalLoop=1;jettySize=auto;html=1;strokeWidth=10;fontSize=150;" edge="1" parent="1" source="6cOXGB1qc0u8PzBB4qL0-24" target="6cOXGB1qc0u8PzBB4qL0-15">
          <mxGeometry relative="1" as="geometry" />
        </mxCell>
        <mxCell id="6cOXGB1qc0u8PzBB4qL0-24" value="&lt;b style=&quot;text-align: start; text-wrap-mode: nowrap;&quot;&gt;&lt;font&gt;$$\otimes$$&lt;/font&gt;&lt;/b&gt;" style="text;html=1;align=center;verticalAlign=middle;whiteSpace=wrap;rounded=0;fontFamily=Times New Roman;fontSize=150;container=0;" vertex="1" parent="1">
          <mxGeometry x="5910" y="1090" width="200" height="200" as="geometry" />
        </mxCell>
        <mxCell id="6cOXGB1qc0u8PzBB4qL0-25" style="edgeStyle=orthogonalEdgeStyle;rounded=0;orthogonalLoop=1;jettySize=auto;html=1;exitX=1;exitY=0.5;exitDx=0;exitDy=0;strokeWidth=10;fontSize=150;" edge="1" parent="1" source="6cOXGB1qc0u8PzBB4qL0-27" target="6cOXGB1qc0u8PzBB4qL0-19">
          <mxGeometry relative="1" as="geometry" />
        </mxCell>
        <mxCell id="6cOXGB1qc0u8PzBB4qL0-26" style="edgeStyle=orthogonalEdgeStyle;rounded=0;orthogonalLoop=1;jettySize=auto;html=1;exitX=0.5;exitY=0;exitDx=0;exitDy=0;endArrow=none;endFill=0;startArrow=classic;startFill=1;strokeWidth=10;fontSize=150;" edge="1" parent="1" source="6cOXGB1qc0u8PzBB4qL0-27">
          <mxGeometry relative="1" as="geometry">
            <mxPoint x="6801.333333333334" y="246" as="targetPoint" />
          </mxGeometry>
        </mxCell>
        <mxCell id="6cOXGB1qc0u8PzBB4qL0-27" value="&lt;b style=&quot;text-align: start; text-wrap-mode: nowrap;&quot;&gt;&lt;font&gt;$$\otimes$$&lt;/font&gt;&lt;/b&gt;" style="text;html=1;align=center;verticalAlign=middle;whiteSpace=wrap;rounded=0;fontFamily=Times New Roman;fontSize=150;container=0;" vertex="1" parent="1">
          <mxGeometry x="6700" y="530" width="200" height="200" as="geometry" />
        </mxCell>
        <mxCell id="6cOXGB1qc0u8PzBB4qL0-28" value="" style="group" vertex="1" connectable="0" parent="1">
          <mxGeometry x="4951" y="517" width="500" height="500" as="geometry" />
        </mxCell>
        <mxCell id="6cOXGB1qc0u8PzBB4qL0-29" value="" style="rounded=0;whiteSpace=wrap;html=1;fillColor=#F8B2B2;strokeColor=#b85450;container=0;fontSize=150;" vertex="1" parent="6cOXGB1qc0u8PzBB4qL0-28">
          <mxGeometry width="100" height="500" as="geometry" />
        </mxCell>
        <mxCell id="6cOXGB1qc0u8PzBB4qL0-30" value="" style="rounded=0;whiteSpace=wrap;html=1;fillColor=#FFE8E8;strokeColor=#b85450;container=0;fontSize=150;" vertex="1" parent="6cOXGB1qc0u8PzBB4qL0-28">
          <mxGeometry x="100" width="100" height="500" as="geometry" />
        </mxCell>
        <mxCell id="6cOXGB1qc0u8PzBB4qL0-31" value="" style="rounded=0;whiteSpace=wrap;html=1;fillColor=#F8E1E1;strokeColor=#b85450;container=0;fontSize=150;" vertex="1" parent="6cOXGB1qc0u8PzBB4qL0-28">
          <mxGeometry x="200" width="100" height="500" as="geometry" />
        </mxCell>
        <mxCell id="6cOXGB1qc0u8PzBB4qL0-32" value="" style="rounded=0;whiteSpace=wrap;html=1;fillColor=#F8E9E9;strokeColor=#b85450;container=0;fontSize=150;" vertex="1" parent="6cOXGB1qc0u8PzBB4qL0-28">
          <mxGeometry x="300" width="100" height="500" as="geometry" />
        </mxCell>
        <mxCell id="6cOXGB1qc0u8PzBB4qL0-33" value="" style="rounded=0;whiteSpace=wrap;html=1;fillColor=#F8EBEB;strokeColor=#b85450;container=0;fontSize=150;" vertex="1" parent="6cOXGB1qc0u8PzBB4qL0-28">
          <mxGeometry x="400" width="100" height="500" as="geometry" />
        </mxCell>
        <mxCell id="6cOXGB1qc0u8PzBB4qL0-34" value="" style="rounded=0;whiteSpace=wrap;html=1;fillColor=#F8B2B2;strokeColor=#b85450;container=0;fontSize=150;rotation=90;opacity=50;" vertex="1" parent="6cOXGB1qc0u8PzBB4qL0-28">
          <mxGeometry x="200" y="-200" width="100" height="500" as="geometry" />
        </mxCell>
        <mxCell id="6cOXGB1qc0u8PzBB4qL0-35" value="" style="rounded=0;whiteSpace=wrap;html=1;fillColor=#FFE8E8;strokeColor=#b85450;container=0;fontSize=150;rotation=90;opacity=50;" vertex="1" parent="6cOXGB1qc0u8PzBB4qL0-28">
          <mxGeometry x="200" y="-100" width="100" height="500" as="geometry" />
        </mxCell>
        <mxCell id="6cOXGB1qc0u8PzBB4qL0-36" value="" style="rounded=0;whiteSpace=wrap;html=1;fillColor=#F8E1E1;strokeColor=#b85450;container=0;fontSize=150;rotation=90;opacity=50;" vertex="1" parent="6cOXGB1qc0u8PzBB4qL0-28">
          <mxGeometry x="200" width="100" height="500" as="geometry" />
        </mxCell>
        <mxCell id="6cOXGB1qc0u8PzBB4qL0-37" value="" style="rounded=0;whiteSpace=wrap;html=1;fillColor=#F8E9E9;strokeColor=#b85450;container=0;fontSize=150;rotation=90;opacity=50;" vertex="1" parent="6cOXGB1qc0u8PzBB4qL0-28">
          <mxGeometry x="200" y="100" width="100" height="500" as="geometry" />
        </mxCell>
        <mxCell id="6cOXGB1qc0u8PzBB4qL0-38" value="" style="rounded=0;whiteSpace=wrap;html=1;fillColor=#F8EBEB;strokeColor=#b85450;container=0;fontSize=150;rotation=90;opacity=50;" vertex="1" parent="6cOXGB1qc0u8PzBB4qL0-28">
          <mxGeometry x="200" y="200" width="100" height="500" as="geometry" />
        </mxCell>
        <mxCell id="6cOXGB1qc0u8PzBB4qL0-39" value="" style="group" vertex="1" connectable="0" parent="1">
          <mxGeometry x="4778" y="1260" width="800" height="530" as="geometry" />
        </mxCell>
        <mxCell id="6cOXGB1qc0u8PzBB4qL0-40" value="&lt;font face=&quot;Times New Roman&quot;&gt;Router&lt;/font&gt;" style="rounded=1;whiteSpace=wrap;html=1;strokeWidth=3;container=0;fontSize=150;" vertex="1" parent="6cOXGB1qc0u8PzBB4qL0-39">
          <mxGeometry y="380" width="800" height="150" as="geometry" />
        </mxCell>
        <mxCell id="6cOXGB1qc0u8PzBB4qL0-41" value="" style="rounded=0;whiteSpace=wrap;html=1;fillColor=#F8B2B2;strokeColor=#b85450;container=0;fontSize=150;" vertex="1" parent="6cOXGB1qc0u8PzBB4qL0-39">
          <mxGeometry x="173" width="100" height="379" as="geometry" />
        </mxCell>
        <mxCell id="6cOXGB1qc0u8PzBB4qL0-42" value="" style="rounded=0;whiteSpace=wrap;html=1;fillColor=#FFE8E8;strokeColor=#b85450;container=0;fontSize=150;" vertex="1" parent="6cOXGB1qc0u8PzBB4qL0-39">
          <mxGeometry x="273" y="180" width="100" height="199" as="geometry" />
        </mxCell>
        <mxCell id="6cOXGB1qc0u8PzBB4qL0-43" value="" style="rounded=0;whiteSpace=wrap;html=1;fillColor=#F8E1E1;strokeColor=#b85450;container=0;fontSize=150;" vertex="1" parent="6cOXGB1qc0u8PzBB4qL0-39">
          <mxGeometry x="373" y="100" width="100" height="279" as="geometry" />
        </mxCell>
        <mxCell id="6cOXGB1qc0u8PzBB4qL0-44" value="" style="rounded=0;whiteSpace=wrap;html=1;fillColor=#F8E9E9;strokeColor=#b85450;container=0;fontSize=150;" vertex="1" parent="6cOXGB1qc0u8PzBB4qL0-39">
          <mxGeometry x="473" y="265" width="100" height="114" as="geometry" />
        </mxCell>
        <mxCell id="6cOXGB1qc0u8PzBB4qL0-45" value="" style="rounded=0;whiteSpace=wrap;html=1;fillColor=#F8EBEB;strokeColor=#b85450;container=0;fontSize=150;" vertex="1" parent="6cOXGB1qc0u8PzBB4qL0-39">
          <mxGeometry x="573" y="320" width="100" height="59" as="geometry" />
        </mxCell>
        <mxCell id="6cOXGB1qc0u8PzBB4qL0-46" value="" style="group;rotation=90;" vertex="1" connectable="0" parent="1">
          <mxGeometry x="6083" y="517" width="500" height="500" as="geometry" />
        </mxCell>
        <mxCell id="6cOXGB1qc0u8PzBB4qL0-47" value="" style="rounded=0;whiteSpace=wrap;html=1;fillColor=#F8B2B2;strokeColor=#b85450;container=0;fontSize=150;rotation=90;" vertex="1" parent="6cOXGB1qc0u8PzBB4qL0-46">
          <mxGeometry x="200" y="-200" width="100" height="500" as="geometry" />
        </mxCell>
        <mxCell id="6cOXGB1qc0u8PzBB4qL0-48" value="" style="rounded=0;whiteSpace=wrap;html=1;fillColor=#FFE8E8;strokeColor=#b85450;container=0;fontSize=150;rotation=90;" vertex="1" parent="6cOXGB1qc0u8PzBB4qL0-46">
          <mxGeometry x="200" y="-100" width="100" height="500" as="geometry" />
        </mxCell>
        <mxCell id="6cOXGB1qc0u8PzBB4qL0-49" value="" style="rounded=0;whiteSpace=wrap;html=1;fillColor=#F8E1E1;strokeColor=#b85450;container=0;fontSize=150;rotation=90;" vertex="1" parent="6cOXGB1qc0u8PzBB4qL0-46">
          <mxGeometry x="200" width="100" height="500" as="geometry" />
        </mxCell>
        <mxCell id="6cOXGB1qc0u8PzBB4qL0-50" value="" style="rounded=0;whiteSpace=wrap;html=1;fillColor=#F8E9E9;strokeColor=#b85450;container=0;fontSize=150;rotation=90;" vertex="1" parent="6cOXGB1qc0u8PzBB4qL0-46">
          <mxGeometry x="200" y="100" width="100" height="500" as="geometry" />
        </mxCell>
        <mxCell id="6cOXGB1qc0u8PzBB4qL0-51" value="" style="rounded=0;whiteSpace=wrap;html=1;fillColor=#F8EBEB;strokeColor=#b85450;container=0;fontSize=150;rotation=90;" vertex="1" parent="6cOXGB1qc0u8PzBB4qL0-46">
          <mxGeometry x="200" y="200" width="100" height="500" as="geometry" />
        </mxCell>
        <mxCell id="6cOXGB1qc0u8PzBB4qL0-52" value="" style="rounded=0;whiteSpace=wrap;html=1;fillColor=#F8B2B2;strokeColor=#b85450;container=0;fontSize=150;rotation=180;opacity=50;" vertex="1" parent="6cOXGB1qc0u8PzBB4qL0-46">
          <mxGeometry x="400" width="100" height="500" as="geometry" />
        </mxCell>
        <mxCell id="6cOXGB1qc0u8PzBB4qL0-53" value="" style="rounded=0;whiteSpace=wrap;html=1;fillColor=#FFE8E8;strokeColor=#b85450;container=0;fontSize=150;rotation=180;opacity=50;" vertex="1" parent="6cOXGB1qc0u8PzBB4qL0-46">
          <mxGeometry x="300" width="100" height="500" as="geometry" />
        </mxCell>
        <mxCell id="6cOXGB1qc0u8PzBB4qL0-54" value="" style="rounded=0;whiteSpace=wrap;html=1;fillColor=#F8E1E1;strokeColor=#b85450;container=0;fontSize=150;rotation=180;opacity=50;" vertex="1" parent="6cOXGB1qc0u8PzBB4qL0-46">
          <mxGeometry x="200" width="100" height="500" as="geometry" />
        </mxCell>
        <mxCell id="6cOXGB1qc0u8PzBB4qL0-55" value="" style="rounded=0;whiteSpace=wrap;html=1;fillColor=#F8E9E9;strokeColor=#b85450;container=0;fontSize=150;rotation=180;opacity=50;" vertex="1" parent="6cOXGB1qc0u8PzBB4qL0-46">
          <mxGeometry x="100" width="100" height="500" as="geometry" />
        </mxCell>
        <mxCell id="6cOXGB1qc0u8PzBB4qL0-56" value="" style="rounded=0;whiteSpace=wrap;html=1;fillColor=#F8EBEB;strokeColor=#b85450;container=0;fontSize=150;rotation=180;opacity=50;" vertex="1" parent="6cOXGB1qc0u8PzBB4qL0-46">
          <mxGeometry width="100" height="500" as="geometry" />
        </mxCell>
        <mxCell id="6cOXGB1qc0u8PzBB4qL0-57" style="edgeStyle=orthogonalEdgeStyle;rounded=0;orthogonalLoop=1;jettySize=auto;html=1;entryX=1;entryY=0.5;entryDx=0;entryDy=0;strokeWidth=10;" edge="1" parent="1" source="6cOXGB1qc0u8PzBB4qL0-43" target="6cOXGB1qc0u8PzBB4qL0-38">
          <mxGeometry relative="1" as="geometry" />
        </mxCell>
        <mxCell id="6cOXGB1qc0u8PzBB4qL0-58" value="&lt;font face=&quot;Times New Roman&quot;&gt;GN&lt;/font&gt;" style="rounded=1;whiteSpace=wrap;html=1;strokeWidth=3;container=0;fontSize=150;flipV=0;flipH=0;direction=east;textDirection=vertical-lr;" vertex="1" parent="1">
          <mxGeometry x="3580" y="390" width="150" height="500" as="geometry" />
        </mxCell>
      </root>
    </mxGraphModel>
  </diagram>
</mxfile>
